<svg xmlns="http://www.w3.org/2000/svg" aria-label="عدلي" role="img" viewBox="221 60 1157 1156"><title>عدلي</title><circle cx="799.5" cy="638" r="575.5" fill="#F5F5DB"/><g fill="#0B300F" fill-rule="evenodd"><path d="M792.8 61.7a481 481 0 0 1 70.6 3.4q12.2 1 24.4 3l4.6.8c14.2 2.4 14.2 2.4 17.6 3.2l5.9 1.2q8.6 1.4 17.1 3.7l5.5 1.3q4.5 1 9 2.3l6.2 1.7a228 228 0 0 1 16.4 4.8l2.8 1q1.2.2 2.3.6l3.3 1 1.9.6q2.8.8 5.5 2 2.4 1 5 1.8l3.3 1 .7.3 7.1 2.6 1 .4 10.1 4.1 11 4.5 4.7 2q1.5.8 3.2 1.4a76 76 0 0 1 10 4.5c9.8 4.4 9.8 4.4 14.1 6.7l2.7 1.3 2.7 1.4 1.4.7a170 170 0 0 1 11.3 6.1 140 140 0 0 1 15 8.4l6.5 3.8 1 .7 3 1.8 1.3.8c6.6 4 6.6 4 9.3 5.9q1.8 1.3 3.8 2.4a171 171 0 0 1 12.5 8.4l9.7 6.9 2.4 1.7 1.3 1a168 168 0 0 1 12.3 9.3l8.8 6.9 2.4 2 .9.6 4.6 3.6v.7l.5.2q1.7 1 3 2.3l5.2 4.6c.6.6.6.6 1.3.9v.7l.5.2q1.5.8 2.8 2l1 .7.7.7v.7l.6.3q1.2.6 2 1.5l.7.5 1.5 1.5 3.5 3.4.8.7 3.6 3.4q.1-.1.7.6l2.6 2.4v.7l.6.2q1.3.7 2.2 1.9l1 .9.9 1 1 .9 2 2 7.8 7.8c.5.6.5.6.5 1.3l.6.2q1.2.7 2 1.9l4 4.2q2.6 2.5 4.7 5.2l2.7 2.9 3.7 4 .6.7.6.7c.4.5.4.5.4 1.2h.7l1 1 .6.8.7.9 1 1 4.4 5.5 2.4 2.9 4 4.9 3.3 4.2a391 391 0 0 1 20.4 27.6l7.6 11.2 1.7 2.7 1.5 2.3 7 11 5.3 8.6 3.1 5.4a134 134 0 0 1 5.5 9.7 264 264 0 0 1 10.1 19.4 285 285 0 0 1 8 16.6l.8 1.5 2.6 5.8.5 1 5.7 13.2.5 1.2 3.5 9 1.8 5 1 2.3 2.1 5.6.8 2.2 1.7 4.7a350 350 0 0 1 8.4 26l3 10.5q1.5 5.2 2.8 10.6l1.6 5.5 1.4 6.5 1.5 6.9q1.4 5.3 2.4 10.8l.1.9a636 636 0 0 1 6.1 37.3 308 308 0 0 1 3.7 38.8q.7 8.2 1 16.4v.8q1.2 34-1.8 68v.9a427 427 0 0 1-5 40.6q0 1-.3 1.7l-2.2 12.7-.4 2.4-1.2 6.3-.4 2.2-1.3 5.8-1.6 7.2q-1.4 6.6-3.1 13l-1.7 6.5q-.6 3.4-1.8 6.6l-2.3 8-1.5 4.7q-1 3-1.7 6-1.4 5.2-3.4 10.2l-1.4 4.4-2.3 6.4-1.7 4.8-2 5.3q-1 2.3-1.7 4.7l-1.6 3.7-2.2 5.2q-1 3-2.4 5.6l-1 2.6a174 174 0 0 1-6 13.5c-2.3 4.8-2.3 4.8-3.1 6.9q-2.3 5.3-5.2 10.3l-2.3 4.8-3.1 5.8-1.8 3.4q-2 4-4.2 7.7l-3 5.5a244 244 0 0 1-11.3 18.9l-1.9 3.1q-1 2-2.4 3.7l-3.4 5.3-.4.6-.8 1.2-1.7 2.5q-.8 1-1.4 2.1l-2.9 4.4-2 3-3 4.1q-2.9 3.7-5.5 7.7a114 114 0 0 1-6.8 8.9l-.4.5-8.4 10.8-3.5 4.4a76 76 0 0 1-6.2 7.3 96 96 0 0 1-6.3 7.3q-2.3 2.9-5 5.5l-4 4.7q-1.6 1.9-3.5 3.6c-.8.8-.8.8-1.4 1.8h-.7l-.2.6q-1 1.4-2.2 2.5l-.5.5-3.8 3.8-.5.5-3.4 3.6-2 1.8-1 1.1q-1 1.3-2.3 2.3-2.8 2.6-5.4 5.3l-.7.8-.7.7c-.6.5-.6.5-1.3.5l-.3 1-1 1q-2.2 1.7-4.2 3.7l-6.6 6a99 99 0 0 1-8 7l-4.9 4-4.2 3.6-3.8 3-2.1 1.7-3.8 3a367 367 0 0 1-15.7 11.8l-14 10.1-3.2 2.2a266 266 0 0 1-12.5 8.2l-3.4 2-23 14q-3 1.8-6 3.2l-4.5 2.4-11.2 6q-3 1.8-6.3 3.2l-11.6 5.6-.9.5-7.1 3.2a612 612 0 0 1-29.7 12.5l-6 2.1-2.7 1.1q-3 1.4-6.4 2.4-2.3.7-4.7 1.7-3.5 1.3-7 2.3-2.3.6-4.5 1.5-4.2 1.4-8.5 2.5l-3.4 1-.8.2q-1.8.5-3.3 1.3l-1.6.4-.9.2-1 .2q-3.9.9-7.9 2.2a94 94 0 0 1-10.7 2.7q-.9 0-1.9.4-1.4.3-2.7.9l-1.6.3-3.3.7-.9.2-.9.2a544 544 0 0 1-50 8.8l-5 .6-9.3 1-1 .2-4.1.5a430 430 0 0 1-56.7 2.6H797a538 538 0 0 1-45.3-1.6h-1.3l-2.6-.2-6.5-.8-4-.5-14-1.6-3.6-.5-1.8-.2-2.5-.3-.8-.1-4.5-.8-2.6-.5a152 152 0 0 1-11.8-2l-9.8-2q-4.9-1.2-9.8-2-5.2-1-10.3-2.3l-2.6-.7-.7-.2-4.3-1q-3-.6-6-1.6-3.7-1.2-7.5-2-5.2-1.2-10.3-3l-5-1.5a206 206 0 0 1-13-4.2l-6.6-2.3-5-1.7-5.4-2-4.7-1.8q-7.5-2.7-15-6l-.6-.2-7.6-3.4-5.1-2.2-9.3-4.2-3-1.5-1.6-.7-3.9-1.9a246 246 0 0 1-16.8-8.4 210 210 0 0 1-12-6.5 239 239 0 0 1-17-9.8l-12-7.5-2.2-1.5a375 375 0 0 1-17.6-11.7l-5.2-3.7-4.4-3.2-7.6-5.6-.7-.6-11.4-8.8q-4-3-7.7-6.4l-3-2.3-.9-.6v-.7l-.6-.2c-2.7-1.5-5-4-7.2-6l-4.6-4a199 199 0 0 1-10-8.9l-.6-.5v-.7l-.6-.3c-.9-.4-1-.8-1.4-1.7l-.6-.3q-1.3-.7-2.1-1.8-2.4-2.3-5-4.5l-3-3-3.9-4-.7-.7-2.2-2.2-3-3-4.3-4.6-3-3.3-.7-.6-6-6.3-.5-.7-.6-.7-.5-.6-.5-.6c-.4-.4-.4-.4-.4-1.1l-1-.3-1.2-1.5-3-3.6-4.1-4.9-3.7-4.2a66 66 0 0 1-4.8-6 345 345 0 0 1-13.9-17.8c0-.2 0-.2-.6-.9l-4.7-6.6-4-5.7-6.2-9-7.1-10.8-.6-.9q-6-9.3-11.4-18.8l-.7-1.1a364 364 0 0 1-12-21.6l-.4-.8-4-7.8-1.2-2.7-.4-.6-1.8-3.5a72 72 0 0 1-3.7-7.8l-2.6-5.6q-1.1-2.2-2-4.6l-1.7-3.7a90 90 0 0 1-4.2-10l-.5-1.1-.9-2-3.1-8-2.4-6.1-2.3-6.2q-.9-2.8-2-5.4L252 819l-1-3.1-3-9.2-1-3-3.3-11.6a385 385 0 0 1-8-32.5q-1.2-5.1-2-10.2l-.7-3.8-.2-.9-1.2-6a110 110 0 0 1-1.8-11.4l-.2-1.5-.8-5.6-.3-2.3-.3-1.9q-1.4-9-2.2-18.4l-.2-2.9-.8-9v-1.1q-1.2-12.6-1.6-25.2l-.2-3.2q-.7-17.6 0-35.2v-.7q0-3.7.4-7.6l.2-5.2a115 115 0 0 1 1-14 376 376 0 0 1 4.5-40l.5-3.6.4-2.4q1-6.6 2.3-13.2l.8-4.5 1.9-9.4.6-3 1.6-7 1-4.3q.8-4 2-8l1.7-7 2.5-9 1.7-6.1q1.1-4 2.5-8 1-2.6 1.7-5.5 1.1-3.7 2.5-7.5l2.3-6.8 2.4-6.8 1.8-4.8 2.2-5.6.6-1.5 4-9.9q0-.5.4-1l3.7-9 2.6-5.9 1.7-3.7q1-2.6 2.3-5l2-4.2 2.3-4.8.5-1.1q3-6.1 6.2-12 1.3-2.2 2.4-4.6 1.2-2.5 2.7-5l1.3-2.5a110 110 0 0 1 6.7-11.9l2.6-4.5 1.1-1.9q2-3.5 4.4-6.8l1.8-3 6-9.4 1.8-2.8 4.7-6.8.5-.8.6-.8 3.8-5.5q3-4.5 6.3-8.8l1.8-2.4 7.6-10 2-2.5q2.3-3.2 4.9-6.2l1.1-1.4 4.6-5.5.5-.6 1.2-1.5 1-1.4h.6l.2-.5q.8-1.4 1.8-2.3a111 111 0 0 0 6.3-7.5h.7l.3-.6q.5-1 1.4-2l.7-.6 5-5.5a162 162 0 0 1 9.6-10l.7-.6 1.2-1.5.4-.5h.7l.2-.6c1.1-2 3.2-3.4 4.9-5 3-2.7 3-2.7 3.9-4.1h.7l.3-1 1.2-1 2.8-2.7 3-2.8q1.7-1.5 3.1-3l4.5-4.2 3-2.8 5.1-4.4 3.2-2.8c5-4.6 5-4.6 6.1-4.6v-.7l1.2-1q2.3-1.5 4.4-3.4l6.8-5.4 2-1.7a405 405 0 0 1 20.3-15l8.6-6q6-4.4 12-8.2l2.7-1.7 1.4-1 .6-.4 5.8-3.5 2.7-1.7q7-4.4 14.3-8.3l9.4-5.4 6-3.3 4.3-2.2 7.5-3.8 3.4-1.7 1.3-.7 8-3.8 3.5-1.6 13.2-6 7.5-3.1c4-1.7 4-1.7 5.5-2.5q2.7-1.2 5.6-2 2.7-.9 5.2-2.2 2-1 4.3-1.7l2-.6 1.1-.4 5.3-1.9q8.5-3 17.1-5.8l1.2-.4 2-.6 8-2.5a334 334 0 0 1 23.2-6.5l10.1-2.4 3.3-.8q6-1.5 12.1-2.5l6-1.2q6.5-1.5 13.4-2.5l4.4-.6 6.9-1.2q9.4-1.6 19.2-2.4l3-.3 1-.1 5.4-.9 4.5-.4h1.3l2.6-.2h1.2l2.6-.3 5.9-.5q15.8-1 31.5-1m-5.4 44.9h-3.6c-12 .3-12 .3-17.3 1l-5 .2-6.5.6-7.5.7-13.6 1.2-.7.1q-4.6.5-9.1 1.3l-6.2 1-2 .4-6.3.9-6.4 1.1-1.1.2a567 567 0 0 0-28.7 6.3 253 253 0 0 0-16.6 4.3l-10.2 3-5 1.6-2.3.7-1.4.4q-5.8 1.7-11.4 3.8-3.8 1.5-7.7 2.8-2.3.7-4.7 1.8-2.3 1-4.8 1.8a107 107 0 0 0-11.7 4.6 197 197 0 0 0-15.3 6.6q-4.6 2-9 4.2l-10.1 4.9-2.5 1.2a305 305 0 0 0-18.6 10l-4.4 2.4-3.3 1.8-.8.4-7 4.1-2 1.3c-6.7 4-6.7 4-9.6 5.9l-1 .7-4.3 2.7-3 2a379 379 0 0 0-22.9 16.1l-2.4 1.8a302 302 0 0 0-21.7 17.2q-3.4 3-7 5.7l-1.5 1.4-3 2.7a49 49 0 0 0-5.8 5.2l-4 3.8-.8.6-5.4 5.2q-2.7 2.4-5.1 5l-1 1-2.2 2-2.7 2.8-2.1 2.1-1 1-5 5.2-2.8 3.1-6.2 6.8-5 5.8-2.7 3-4.1 4.9q-1.6 2.1-3.4 4.1a191 191 0 0 0-12.2 15.4q-4.9 6.3-9.5 12.8l-1.4 1.8-5.2 7.5-.7 1q-2.2 3-4.2 6.4l-4.2 6.5-6.8 10.8-2 3.3-.7 1.3-1.2 2q-4.3 7-8 14.3l-.7 1.2-8.5 16-.3.6-4.1 8.8-.3.7-1.2 2.5a269 269 0 0 0-7.4 16.6l-2.7 6.4-1.6 4-.7 1.7-1.3 3.3-.3.8-.7 1.7-1.8 5q-.7 2.3-1.7 4.4-1.3 3.2-2.3 6.5l-1.6 4.3-1.4 4.3-1.8 6a409 409 0 0 0-8.7 30.5 143 143 0 0 0-3.9 16.8q-1.6 6.9-2.7 14l-.2 1v.8l-.6 1.9c-1.4 4.2-1.7 9-2.3 13.4l-.4 2.7-1.1 8.2a426 426 0 0 0-3.4 34.4l-.2 3q-2 33.6.1 67v1.1l.5 7.3v.9l1 9.3.5 4.6q.5 5.2 1.3 10.6l.2 2 .7 4.9.4 2.6a252 252 0 0 0 3.2 19.5l.2 1.3.7 3.9.3 1.2.4 2.5.2 1.2.2 1q.3 1.6.9 3 0 .8.3 1.5l1.3 6.4.5 2 1.5 6.5.4 1.5c3.3 13.3 3.3 13.3 5.4 19.7l1.3 4.5 2 6 1.2 4.3q1.2 4.3 2.8 8.4l1.8 5a135 135 0 0 0 4.1 11.1q1.2 3.3 2.6 6.3l1.3 3.8q.8 2.5 2 4.7l1.8 4.2q1.7 4.5 3.7 8.8l.4 1q4.7 10.5 10 20.7l.9 2a280 280 0 0 0 10.7 20 316 316 0 0 0 13.4 22.7l1 1.8 5.4 8 9 13.5a123 123 0 0 0 7.8 10.6l7 9.3A226 226 0 0 0 389 976l3.7 4.5 3 3.6a99 99 0 0 0 7 7.8q2.5 3 5.3 5.8l2.3 2.5 1.8 1.9 2.3 2.4q2.4 2.8 5 5.2l2.1 2.4a26 26 0 0 0 3.4 3.1l.3.7h.7l.2.6q.9 1.4 2.2 2.3l5.7 5.5a67 67 0 0 0 6.7 6.2 331 331 0 0 0 13.1 11.7 151 151 0 0 0 8.4 7.1A416 416 0 0 0 481 1064q5.7 4.4 11.6 8.6l.7.5a171 171 0 0 0 11.3 7.7 92 92 0 0 0 8 5.1l.7.5 3.9 2.6a183 183 0 0 0 14.8 8.8 469 469 0 0 0 60.6 30.6l3.3 1.4 2 .9a363 363 0 0 0 33 12.2l5.4 1.8a341 341 0 0 0 25 7.5l5.7 1.5 4.4 1.1q5.5 1.5 11 2.6l1.9.4 12.8 2.6 2.4.5a405 405 0 0 0 48.5 7q8.5 1 17.1 1.6h1a484 484 0 0 0 35.4.8q11.4.1 22.8-.4h1q13.5-.7 26.9-2.2l5-.5 16.7-1.9h1l4.3-.9q2.4-.6 5-.8l17.4-3 2.5-.6 4.3-.9 6.2-1.3 12.8-2.9.8-.2 9.3-2.5 8-2.2a89 89 0 0 0 10.6-3.1l1.1-.4 12.3-4 2-.7 3.7-1.2.7-.3a326 326 0 0 0 25.2-9.6l.6-.2a452 452 0 0 0 45.7-21.5 202 202 0 0 0 12.2-6.5q3.2-1.7 6.3-3.6l3.8-2.2 4.2-2.5 1-.5a569 569 0 0 0 64.2-46.1l3.9-3q1.4-1 2.6-2.4l2.2-1.9 8-6.9q2.3-1.8 4.3-4 1.7-1.7 3.5-3.2l3-3 2.2-2q2.5-2.2 4.8-4.7l1-.9 2.3-2.4 3.8-3.7.5-.5 1.4-1.4v-.7h.6v-.7l.6-.2q1.1-.7 1.9-1.5l.6-.7.7-.7.6-.8 5.7-6.1c.6-.6.6-.6.6-1.3h.7l1-1 .6-.8.7-.9 1.3-1.5 1.4-1.6 6.5-7.5 3.7-4.6 3.3-4 5.5-6.8.4-.5 2-2.7 1.7-2.1a339 339 0 0 0 12.9-17.7q2.3-3.1 4.5-6.5l2.8-4.1a159 159 0 0 0 7.4-11.4l3.7-6 1.1-1.8 5.8-9.8 3.7-6.4.4-.7 4.6-8.6 2.6-5a152 152 0 0 0 5.5-10.7l.6-1.1 1.2-2.5a181 181 0 0 0 5.6-11.9l.8-1.8.3-.6q5.2-11.6 9.6-23.4l1.1-2.8a232 232 0 0 0 6-16.3l2-6.3a233 233 0 0 0 4.8-15l.3-1 2.3-8.1.6-1.9 2.8-11.2.3-1c.2-1 .2-1 .6-1.9q.6-1.7.9-3.5l.2-.8.5-2.5.7-3.2.1-.8 1.2-5q1.3-5 2-10l.4-2 .5-2.7 1-5.6q1.7-9.5 3-19.1v-.8l.2-.8.8-6.1q1.2-8.1 1.7-16.2l.2-2.2a448 448 0 0 0 1.2-70.2q-.2-8.7-1-17.2v-1l-.5-6.4-.2-2.1q-.4-5.5-1.2-11l-1.5-10.8a260 260 0 0 0-2.4-16.2l-.8-4.6-1.7-9.1-.2-1-.3-2q-.4-2.3-1.2-4.6l-.5-2.9-.4-1.8-.2-1c-2-10-2-10-3.5-14.3l-1.4-5.8q-1.2-5-2.8-10 0-.6-.3-1.1l-.6-2.1-3.1-10.3q-.7-1.8-1.2-3.7a422 422 0 0 0-8.5-24.3q-1.7-4.7-3.7-9.2l-2-5q-2.2-6-4.8-11.5l-2.1-4.7a280 280 0 0 0-7.9-16.5 109 109 0 0 0-5.3-10.5 301 301 0 0 0-12.8-23.3l-2.4-4-6.8-11-.5-.8a479 479 0 0 0-13.4-20l-4.4-6.2q-1.5-1.8-2.6-3.7l-.5-.6-1.1-1.6-3.2-4.1-1.1-1.5-8.3-10.5-4.2-5-3.2-4-4.4-5.1-3.4-4.2h-.7l-.2-.6-2-2.5-5.3-5.7-3.2-3.8-2.3-2.4-.8-.9-.9-.8-1.4-1.4-1-1-5-5.4-2.3-2.2-6.1-5.8a69 69 0 0 0-5.8-5.5c-.7-.7-.7-.7-1.4-.7l-.3-1-1-1q-2-1.5-3.9-3.4c-4.3-4-4.3-4-5.1-4v-.6l-1.6-1.4-3.7-3.1a101 101 0 0 0-7.4-6.3A266 266 0 0 0 1124 217a318 318 0 0 0-18.1-13.4l-2.5-1.8-1-.7-2-1.4a148 148 0 0 0-9.6-6.3l-3-2a240 240 0 0 0-16.2-10.1l-3.7-2.3q-1.8-1.2-3.8-2.1l-3-1.6q-3.7-2.2-7.5-4.2l-6.2-3.4q-5.8-3.2-11.7-6l-4.7-2.3q-2.7-1.5-5.4-2.5l-3.4-1.6-5.2-2.4-4-1.8q-.4 0-.8-.3l-3.5-1.6q-6-2.7-12.3-5l-4.8-1.9a358 358 0 0 0-31.3-11q-6.1-2.2-12.4-3.9l-.8-.2-13-3.5-2.3-.6-7.7-2-1-.3-5.4-1.2-3.3-.8q-4.3-1-8.8-1.7l-6.1-1.3q-4.4-1-8.7-1.7l-1.6-.2-20-3-3.3-.5-6.7-.7-1.2-.1-3.7-.4q-1.9 0-3.8-.3l-2.3-.2-7.3-.8h-1l-1.2-.1-2.3-.2h-1l-2-.2q-3.8-.4-7.6-.5h-1.3l-2.7-.1-4-.1q-15.2-.5-30.5 0"/><path d="M809.7 136.7h1.2q11 .1 22 1h.7l15 1h1l5.6.8 3.4.5a463 463 0 0 1 30.6 4.5l5.7 1q7.1 1.3 14.3 3l9.2 2a116 116 0 0 1 12.2 3.2l.7.2 3 .8 12.2 3.6 14.9 4.8 6.6 2.3.7.3q4.3 1.4 8.5 3.2l4.3 1.6q3 1 5.6 2.3 2.7 1.3 5.5 2.1l3.7 1.6 3.8 1.6 6.5 3 3 1.4 5.5 2.5 4 2 .8.3 3.4 1.6a93 93 0 0 1 11.5 6.1l.6.3 11 6 3 1.7q5.5 3 10.7 6.3l2.8 1.7 8.7 5.5a205 205 0 0 1 17.3 11.7 137 137 0 0 1 10.4 7.7l1.7 1.2a329 329 0 0 1 18.3 14.4l4.2 3.4.5.4v.7l.6.3c2.6 1.4 5 3.8 7.1 5.9l3.6 3 3.7 3.5 2 1.8q2 1.7 3.7 3.6c.6.6.6.6 1.3.9v.7l1 .3 1.7 1.7 1 1 8.8 8.8 1.4 1.4 2.2 2.3q1.5 1.8 3.3 3.5l3.2 3.5 3 3.3 5.7 6.3 9.3 11 2.6 3 4.1 5.2 1.7 2.1 3 3.9 3.3 4.5 3.3 4.5a137 137 0 0 1 9.4 13.2 340 340 0 0 1 17.6 27.5q6.7 11.1 12.7 22.6l1.2 2.3q2.3 4 4.2 8.3l2.5 5 2.7 5.7 1.8 3.9 3.6 8 1.9 4.2q0 .4.3.8l.6 1.6 1 2.4a262 262 0 0 1 7.1 18.2l1.6 4.3a330 330 0 0 1 6.7 20.2q1.6 4.8 3 9.8l2 7.4a179 179 0 0 1 3.9 14.8q1 4 1.8 8.3l1.2 5.7a352 352 0 0 1 4.6 25.4q1 6 1.7 12l.4 3.6c1.8 15.2 1.8 15.2 2.3 21.5l.1 2.1.7 7.5v.9l.1 2.9v1q.6 11.6.5 23.1v5.7a511 511 0 0 1-.5 23.8q-.1 5-.7 10-.4 3-.5 6.1 0 1.9-.4 3.6l-1 8q-.8 11.3-2.8 22.4l-1 6c-1.8 11.5-1.8 11.5-3 16.6l-1.4 6.3a229 229 0 0 1-4.8 20.1q-1 4.4-2.3 8.7l-1.7 6.1-2.5 8-2 6.7-2.5 7.2q-1 2.6-1.7 5.1l-1 2.5-2 5.3q-1.2 3.8-2.9 7.4l-1.6 4.2q-1.2 3.5-2.8 6.9l-2 4.6a342 342 0 0 1-10.7 23 339 339 0 0 1-12.8 24.2q-1.8 3.4-3.8 6.6l-1.4 2.4a268 268 0 0 1-9.4 15.1l-4.2 6.5-4 6-1 1.3-5.4 7.6-.5.7-3 4.2-1.6 2.1a218 218 0 0 1-14.1 18l-3.3 4.2-4.4 5-2.2 2.7-4.7 5.3-6.4 7-1.1 1.2-.6.6-2.1 2.3-6.7 6.9-1 1.1-2.4 2.3-2.9 3-2.2 2.2-1.1 1-1.5 1.5-.8.9c-.7.6-.7.6-1.4.6v.7l-1.1 1-3 2.8q-1.5 1.5-3.3 2.9-2.3 1.9-4.4 4a84 84 0 0 1-8.3 7q-3.4 3-6.9 5.7l-2 1.7-8.3 6.5-1 .8-10.3 7.7a328 328 0 0 1-17.1 12.1l-5 3.2-3.5 2.2a188 188 0 0 1-11.3 7.1q-4.7 3-9.5 5.6l-1.5.9-3.7 2-.6.4-3 1.7q-3.3 2-6.8 3.6l-5 2.7a237 237 0 0 1-14 6.8l-4 1.8-2 1a254 254 0 0 1-18.3 7.9q-4.8 2.2-10 3.9l-3.8 1.6a26 26 0 0 1-4.6 1.8l-.9.3-2.6 1-13.4 4.5-.8.3-13.4 4.1q-3.8 1.2-7.4 2-3 .7-6.2 1.7-4.6 1.3-9.3 2.3l-2.9.7-.7.2-4 1q-4.8 1.2-9.4 2l-3.3.6-.8.1-6.4 1.3q-7.4 1.4-14.9 2.5l-1.9.2-3.3.5-3.8.6q-10.4 1.5-21.2 2.3l-3.1.2-13.8 1H826l-4 .3-9.3.4h-1q-8.3.2-16.4.1H794a430 430 0 0 1-60.2-4.4L721 1134q-.8 0-1.5-.2l-3.5-.4q-3.9-.5-7.6-1.4l-11.6-2.4-8.4-1.9-3.7-.8a370 370 0 0 1-28.6-7.8l-5.5-1.7q-4.5-1.2-8.9-2.8-.4 0-.8-.3l-10.2-3.5-4.8-1.8a313 313 0 0 1-20-7.8l-.8-.3-2-.8-2.5-1.2q-1.5-.8-3.3-1.4l-6.6-3-2.1-1q-4.5-2-9-4.3l-1.6-.8-.8-.4-2-1a116 116 0 0 1-11-5.9 324 324 0 0 1-29-16.5 357 357 0 0 1-17.9-11.7 288 288 0 0 1-16.8-12 162 162 0 0 1-12.6-9.9l-5.2-4.2-5.6-4.6a120 120 0 0 1-7.8-6.7q-3.5-3-6.6-6l-3-2.7-.5-.5-2.5-2.3-6.3-6-3.8-3.6a47 47 0 0 1-4.7-4.7l-4.4-4.6-5-5.3-2.5-2.7a152 152 0 0 1-8.6-9.8q-1-1.4-2.4-2.7-3-3.3-5.7-6.7l-3.1-3.8a121 121 0 0 1-6.6-8.3 357 357 0 0 1-21.2-29.3l-1.8-2.6q-5-7.5-9.4-15.1L370 897q-5.6-9-10.6-18.3l-.8-1.7-.5-.8-2.2-4q-3-5.1-5.3-10.4l-2.8-5.5q-1.6-3-2.8-6l-1.8-3.8q-1.4-2.5-2.3-5.4l-1.2-2.6c-4-8-7-16.6-10.1-25l-.5-1.3a289 289 0 0 1-5.5-15.2q-1-2.7-1.7-5.5l-1.3-4-1.8-6a193 193 0 0 0-3.6-12.3l-.5-2.2-1.2-4.9-.3-1.2-.5-1.8-1-3.6-2.6-12a30 30 0 0 0-1.2-5l-.3-1.5-.6-3.5a362 362 0 0 1-3.2-18.3q-1.4-9.2-2.4-18.5l-.2-1-1.2-12.1q-1-9.4-1.5-18.7v-1q-.4-11.6-.4-23.3v-6q-.1-11.4.4-23v-1q.3-5 1-9.9l.4-5.4a248 248 0 0 1 2-19.6l.1-.8.4-3q.3-3.7 1-7.2l.7-4c2.3-15.5 2.3-15.5 4-22.2l1.3-6.3c2.1-10.7 2.1-10.7 3.5-15.8q.7-2.1 1.2-4.4 3-11.8 6.7-23.4l.3-.9q1.8-6 3.9-11.7l1-3 4.3-12 3.3-8.3.8-2q2.5-6.1 5.2-12.1l.5-1.2a406 406 0 0 1 14.8-30.8 376 376 0 0 1 28-47A132 132 0 0 1 391 348a142 142 0 0 1 7.2-9.8 142 142 0 0 1 8.7-11.2l5.2-6.6 2.5-3 4.5-5.3 2.1-2.5a173 173 0 0 1 8.9-9.8l4-4.5 2.9-3.1q1-1.2 2.2-2.2 1.8-1.5 3.2-3.3l2.2-2 1.1-1.3q1.4-1.5 2.9-2.6l1.7-2.1c.6-.6.6-.6 1.6-1v-.6l1-1h.7l.2-.6q.6-1 1.6-1.8l6.4-5.7 3.8-3.4 7.8-6.8q1.3-1 2.5-2.4l1.6-1.3 1-.8.5-.4 2-1.6 8.6-6.9 2.1-1.6.6-.4 9.6-7.5 3.7-2.8q2.6-2 5.4-3.8l3.3-2.2a365 365 0 0 1 17.1-11.3q6-4 12-7.5l2.5-1.6c.2 0 .2 0 1-.6l2-1.2 7.4-4.2 3-1.6 9.3-5q3.7-1.7 7.2-3.8l7.2-3.3q3.6-1.5 7.1-3.3l4.8-2.3 1.4-.6a303 303 0 0 1 26.8-11l2.5-1q2.8-1.2 5.5-2l2.2-.7 1-.4 3.3-1.1a303 303 0 0 1 23.7-7.6l7.4-2 4.9-1.2q5.7-1.7 11.5-2.9l1.1-.2 2.2-.5 5.5-1.4a86 86 0 0 1 12.7-2.5l.8-.1 8.2-1.6q6-1.1 11.9-1.8l.6-.1 12-1.5q12-1.4 24.2-2.3h.8a417 417 0 0 1 23.7-1q10.4-.2 20.8-.1M737 324l-2 .7q-8 3-14.3 8.5l-2.6 2c-.8.7-.8.7-1.4 1.5q-1 1.3-2.4 2.2-7.6 8.8-13.3 19l-1 2a162 162 0 0 0-10.5 21.5c-1.9 5-4.7 9.7-7.3 14.4l-1.7 3.2-4.5 8.3a202 202 0 0 0-9 17.7 88 88 0 0 0-4.6 10.4Q659 443 657 451l-.3 1q-1 4.4-.8 9v.7a40 40 0 0 0 5.3 20.2l2.8 5.1h.7l.2.7q1.3 2.8 3.4 4.6h.7l.2.6c1.3 2.3 3.5 4.2 5.5 5.9l1.2 1c11.4 10.6 27.6 14.5 42.5 16.4l2.4.3c4.9.8 10 .6 14.9.5q-1.1 2-2.7 4l-.8 1-.4.4a214 214 0 0 0-9.2 11.9 599 599 0 0 0-19.4 27.6l-3.5 5.5q-3.2 4.9-6 10l-3.5 5.8-6.5 11.7-1.6 3.2q-2.4 4.2-4.4 8.6l-1 1.9-5 10.2-.7 1.6a145 145 0 0 0-4.7 10.4q-1.4 3-2.6 6.2l-.5 1.2-4.2 10.5-2.1 5.7-.4 1.2-1.2 3.4-.3 1-1.7 5-.7 2.1c-2.7 8.2-2.7 8.2-3.5 12l-1.4 5q-1.9 6-3 12.3l-1 3.9q-1.5 6.6-2.5 13.3l-.8 4-1.3 8.9a285 285 0 0 0-1.5 69l.1.8q.7 7.5 2.3 15l1.2 6.6q.8 6.4 2.8 12.7.9 2.7 1.4 5.4a85 85 0 0 0 4.8 14.4 61 61 0 0 0 3.9 9.5 105 105 0 0 0 8.5 17l2.5 4.1 1.3 2.4q1.5 2.5 3.2 4.7l.6.9a140 140 0 0 0 11.5 13.6q2.7 3 5.6 5.4a104 104 0 0 0 18 13.5 61 61 0 0 0 9.7 5.5 90 90 0 0 0 10 4.4 91 91 0 0 0 15 4.6q6 1.5 12.3 2.3l1.2.2a227 227 0 0 0 75.5-3.1l.8-.2a129 129 0 0 0 15-4.2q6.4-1.8 12.4-4.3l3.2-1.3a56 56 0 0 0 8.6-3.8 119 119 0 0 0 13.8-7.2 174 174 0 0 0 19-12.2l4-2.7 1-.8.9-.7 1.3-1 .7-.5 1.4-1q4-3 7.9-6.2l1-.8 2.7-2.2.5-.4 6.5-5.8 5.3-4.4v-.7l.6-.2a10 10 0 0 0 2.3-2l1-.9.8-1 5.7-5.4 2.2-2.3 2-2c.4-.5.4-.5.4-1.2l1-.3 1-1q1.7-2.2 3.6-4.1a89 89 0 0 0 7.2-8.4l1-1.1 1.7-2a129 129 0 0 0 8-10.2q3-3.7 5.6-7.5l1.3-1.8a192 192 0 0 0 9.8-14.3l.7-1 1.9-3q1.7-2.3 3.2-4.9l.6-.9 1.7-2.8.7-1 1.8-3.1.6-1 4-6.6 1.8-3.3q1.6-3.4 3.4-6.6a349 349 0 0 0 20.2-42.1q.8-2.3 2-4.5 3.6-8.3 6.7-16.9.7-2.1 1.7-4.2 1-2.3 1.8-4.7l1.8-5a225 225 0 0 0 5.1-15 91 91 0 0 0 2.9-9l1.7-5.7 2.2-7 .5-1.8.3-.8a3 3 0 0 0-.2-2c-.5-.4-.5-.4-1.3-.7l-1-.3-1-.4-1.2-.4-7-2.5-1.3-.4q-1.5-.5-3.2-.7-1.8 2.7-2.7 5.9-1.6 4.5-3.6 9l-1.9 4.9q-1 3-2.5 5.9l-2 4.4-.7 1.5-.3.7-3.6 8-1.3 2.7q-3.2 7-7.1 13.7l-2 3.6a62 62 0 0 1-5.1 9 189 189 0 0 1-8.9 14l-.8 1.2-1.5 2.2-2 3-.6 1q-2.7 4-5.8 7.7c-4.2 5.6-4.2 5.6-4.2 6.6h-.7l-.8 1-.5.7-.6.8-4.4 5.4-2.9 3.5a131 131 0 0 1-12.8 14v.6h-.7l-.9 1q-2.5 2.9-5.1 5.1l-1.8 1.7q-3.5 3.3-7.2 6.2l-5 4.2q-3.4 3-7.1 5.5l-2.4 1.7a200 200 0 0 1-43.1 24.4q-5.2 2.3-10.8 3.9l-3.6 1.2A205 205 0 0 1 857 842l-.7.2q-6 1.5-12.3 2.6l-2.1.4a185 185 0 0 1-18.3 2.6l-3.7.3h-.8l-.7.1-1.6.3q-1.8.3-3.4.2H803c-8.6 0-17.1 0-25.7-1.4l-1.7-.2-17.7-3.2q-4-1.3-8.3-2.4a32 32 0 0 1-7.4-2.8 108 108 0 0 1-18.7-9.4 54 54 0 0 1-10-7l-.7-.5-.6-.5c-.5-.3-.5-.3-1.2-.3l-.3-1-1.6-1.3q-5.6-4.5-10.1-10.4l-.7-.9c-3-3.6-5.4-7.5-8-11.4l-.4-.7a96 96 0 0 1-12.2-29.4l-.2-1.1-.6-2.3-.5-2.3a161 161 0 0 1-1.7-53.2l.1-1.2q1.2-9.5 3-18.8l.4-1.9.5-2.7.2-.9a17 17 0 0 1 1.1-3.8l.3-1.3 1-3.9 1.2-4.6q.7-3.5 2-6.8l2-5.5a128 128 0 0 1 5-13.2 65 65 0 0 1 2.8-7.1q1.3-3.2 2.9-6.3l4.1-8.8a138 138 0 0 1 9.4-17.6l2.3-4q2-3.7 4.3-7.3l.6-.9 2.7-4.3c3.2-5.1 3.2-5.1 4.9-7.3l1.4-2.2 3.2-4.5 1.1-1.6.6-.8 2.3-3.2q3-4.4 6.5-8.6l2.6-3.2 7.7-9.7 1.9-2.3 5.3-6 4.1-4.8a105 105 0 0 1 7.1-7.5l.7-.7.6-.5c.4-.5.4-.5.4-1.2l1-.3 1-1q2.6-3.2 5.6-6l2-2c4-4 4-4 6-5.6l.4-.4v-.7l.6-.2q1.2-.7 2.1-1.9l3.6-3.3 3.2-3q4.4-4.2 9.1-7.8l1-.8v-.7l.6-.2 2.8-2 1.1-1 .6-.6 3-2.5.6-.5 2-1.5v-.7l.6-.2q1.4-.7 2.6-1.8l.5-.4 4.4-3.3q6.7-5.1 13.5-10l4.8-3.4.8-.5a17 17 0 0 0 5.1-5.8l1-1.7.5-.9 3.3-5.4.7-1.2 1.5-2.5 13.7-22.6.7-1c.1-.7.1-.7 0-1.6l-1.3-1.5-.9-.7-.8-.8-.7-.7-3.6-3q-2.2 1-4.2 2.3A440 440 0 0 1 819 434q-6.8 3.3-14 5.7l-1 .3a166 166 0 0 1-14.7 4.3l-.6.2a101 101 0 0 1-14 2.3q-9 1-18.2 1h-1q-5.9.1-11.8-1.3l-3.1-.6c-6.8-1-13.6-4-19.6-7.2l-1-.5a36 36 0 0 1-16.7-17.5 40 40 0 0 1 3-29.8 33 33 0 0 1 6.9-9.1 51 51 0 0 1 19.8-12.5l.7-.2q4.9-1.8 10-2.8l.7-.1c13.2-2.4 27.1-1 39.7 3.3q.6 0 1 .3l1 .3a8 8 0 0 0 2.9.2l1.9-2.1.5-.7a24 24 0 0 0 3.4-18 35 35 0 0 0-14-22 36 36 0 0 0-14.8-5.8l-1.2-.3c-9-1.4-19.3-.8-27.8 2.7"/></g></svg>